<svg xmlns="http://www.w3.org/2000/svg" width="100%" height="auto" viewBox="0 0 359 315" version="1.1">
	<path d="M 38.492 18.797 C 35.738 19.749, 31.815 21.802, 29.774 23.359 C 24.724 27.210, 20.328 34.137, 18.991 40.345 C 18.205 43.997, 17.972 78.151, 18.191 157.500 L 18.500 269.500 21.250 274.717 C 24.906 281.652, 30.110 286.690, 36.914 289.880 L 42.500 292.500 161.500 292.500 L 280.500 292.500 286.808 289.587 C 294.416 286.074, 300.104 280.010, 302.967 272.360 C 304.909 267.169, 305 264.742, 305 218.402 L 305 169.879 313.823 181.689 C 318.676 188.185, 323.425 194.138, 324.377 194.917 C 328.878 198.603, 337 194.581, 337 188.665 C 337 185.467, 334.109 181.179, 312.869 152.876 C 300.599 136.528, 298.573 134.870, 293.615 137.129 C 291.231 138.216, 287.713 142.684, 265.664 172.622 C 255.003 187.097, 254.080 189.848, 258.492 193.992 C 261.647 196.957, 266.267 197.037, 269.308 194.180 C 270.568 192.996, 275.177 187.098, 279.550 181.073 C 283.922 175.049, 287.782 170.092, 288.126 170.060 C 288.470 170.027, 288.831 190.451, 288.929 215.448 C 289.041 244.250, 288.726 262.305, 288.069 264.745 C 286.902 269.077, 282.957 273.322, 278.548 274.988 L 275.596 276.104 277.548 273.950 C 279.225 272.100, 279.546 270.010, 279.825 259.128 C 280.125 247.415, 279.988 246.254, 278.002 243.730 L 275.855 241 255.538 241 C 229.053 241, 230.500 240.027, 230.500 257.831 C 230.500 270.221, 230.615 270.961, 232.924 273.419 L 235.349 276 227.674 276 L 220 276 220 178.500 L 220 81 258.953 81 C 285.375 81, 298.690 80.643, 300.343 79.890 C 304.760 77.877, 305.191 75.620, 304.827 56.410 C 304.501 39.246, 304.375 38.288, 301.808 33.410 C 298.830 27.754, 294.090 23.159, 287.722 19.756 C 283.739 17.628, 282.159 17.482, 259.838 17.185 L 236.176 16.871 232.838 19.851 L 229.500 22.832 229.164 33.833 C 228.891 42.757, 229.160 45.534, 230.586 48.540 C 233.502 54.684, 235.825 55.148, 261.989 54.802 C 282.767 54.527, 284.981 54.331, 286.897 52.595 L 289 50.690 289 57.345 L 289 64 254.500 64 L 220 64 220 43.950 C 220 28.310, 219.678 23.279, 218.537 21.072 C 216.061 16.283, 210.779 15.566, 206.306 19.412 L 203.500 21.823 203.194 42.912 L 202.888 64 164 64 L 125.112 64 124.806 42.912 L 124.500 21.823 121.694 19.412 C 117.993 16.230, 113.960 16.312, 110.636 19.636 L 108 22.273 108 43.136 L 108 64 71.500 64 L 35 64 35 58.465 C 35 53.302, 35.130 52.999, 36.934 53.965 C 38.117 54.598, 48.428 55, 63.484 55 C 83.530 55, 88.644 54.718, 91.033 53.483 C 95.762 51.038, 97 47.399, 97 35.951 C 97 24.617, 95.560 20.032, 91.405 18.139 C 89.763 17.391, 81.118 17.011, 66.203 17.033 C 47.327 17.060, 42.656 17.357, 38.492 18.797 M 139.302 18.012 C 135.391 19.587, 134.014 24.015, 133.747 35.875 C 133.526 45.663, 133.724 47.140, 135.596 49.669 C 139.410 54.820, 140.707 55.050, 164.233 54.764 L 185.966 54.500 189.233 51.225 L 192.500 47.950 192.403 36.720 C 192.294 24.226, 190.825 19.644, 186.387 17.957 C 183.240 16.761, 142.291 16.808, 139.302 18.012 M 35 173.132 C 35 263.787, 35.032 265.316, 37.018 268.528 C 39.260 272.157, 43.039 275, 45.620 275 C 47.194 275, 47.196 274.874, 45.655 273.171 C 44.291 271.664, 44 269.024, 44 258.171 C 44 239.877, 42.400 241, 68.461 241 C 94.443 241, 93 239.997, 93 258.054 C 93 269.364, 92.777 271.014, 90.927 273.365 L 88.855 276 98.427 276 L 108 276 108 178.500 L 108 81 71.500 81 L 35 81 35 173.132 M 124.760 178.500 L 125.020 276 134.260 275.921 C 139.342 275.878, 142.928 275.612, 142.229 275.331 C 141.530 275.049, 140.292 273.532, 139.479 271.959 C 138.427 269.925, 138 265.803, 138 257.685 C 138 247.651, 138.251 245.951, 140.073 243.635 L 142.145 241 162.918 241 C 189.192 241, 187.500 239.782, 187.500 258.693 C 187.500 271.657, 187.409 272.250, 185.139 274.088 L 182.778 276 192.889 276 L 203 276 203 178.500 L 203 81 163.750 81 L 124.500 81 124.760 178.500 M 293.400 92.436 C 291.694 93.174, 290.007 94.539, 289.650 95.471 C 289.292 96.402, 288.993 99.264, 288.985 101.832 L 288.971 106.500 282.876 108.846 L 276.781 111.192 273.141 107.739 C 271.138 105.840, 268.725 104.016, 267.778 103.685 C 265.381 102.849, 260.156 104.841, 258.979 107.039 C 257.094 110.561, 257.912 114.160, 261.500 118.132 C 263.425 120.262, 265 122.342, 264.999 122.753 C 264.999 123.164, 264.146 125.750, 263.105 128.500 L 261.211 133.500 255.759 134 C 252.761 134.275, 249.607 135.081, 248.752 135.791 C 244.866 139.016, 245.968 146.753, 250.615 148.870 C 251.978 149.492, 256.933 150, 261.624 150 C 269.718 150, 270.303 149.851, 273.077 147.077 C 275.120 145.034, 276.007 143.152, 276.022 140.827 C 276.034 138.997, 276.877 135.700, 277.896 133.500 C 282.974 122.532, 295.813 117.900, 306.093 123.327 C 312.007 126.449, 315.788 132.043, 316.993 139.453 C 317.587 143.106, 318.752 146.196, 320.008 147.453 C 321.813 149.257, 323.308 149.500, 332.616 149.500 C 342.508 149.500, 343.298 149.351, 345.088 147.139 C 347.742 143.862, 347.558 138.873, 344.686 136.174 C 342.962 134.555, 341.111 133.996, 337.436 133.983 L 332.500 133.966 330.329 128.354 L 328.157 122.742 332.144 117.699 C 335.304 113.701, 335.997 112.122, 335.485 110.083 C 334.658 106.788, 333.160 105.011, 330.291 103.921 C 327.286 102.778, 323.340 104.313, 319.323 108.187 L 316.145 111.251 310.685 108.988 L 305.225 106.725 304.775 101.303 C 304.108 93.257, 299.608 89.750, 293.400 92.436 M 48.315 95.007 C 47.114 95.491, 45.651 96.783, 45.065 97.878 C 44.479 98.973, 44 105.094, 44 111.480 C 44 122.547, 44.118 123.209, 46.513 125.604 L 49.025 128.116 69.103 127.808 C 88.823 127.505, 89.214 127.458, 91.090 125.139 C 92.731 123.111, 93 121.100, 93 110.844 C 93 99.506, 92.877 98.786, 90.545 96.455 C 88.108 94.018, 87.957 94, 69.295 94.063 C 58.958 94.098, 49.517 94.523, 48.315 95.007 M 142.364 95.170 C 141.189 95.738, 139.727 97.304, 139.114 98.649 C 137.671 101.816, 137.668 120.178, 139.110 123.343 C 139.721 124.683, 141.317 126.279, 142.657 126.890 C 145.982 128.405, 180.068 128.382, 183.403 126.862 C 184.777 126.236, 186.373 124.369, 186.950 122.713 C 187.528 121.057, 188 115.786, 188 111 C 188 106.214, 187.528 100.943, 186.950 99.287 C 186.373 97.631, 184.777 95.764, 183.403 95.138 C 180.215 93.685, 145.374 93.712, 142.364 95.170 M 46.635 145.073 C 44.033 147.120, 44 147.304, 44 160 C 44 172.696, 44.033 172.880, 46.635 174.927 C 49.095 176.863, 50.557 177, 68.680 177 C 87.956 177, 88.108 176.983, 90.545 174.545 C 92.881 172.210, 93 171.504, 93 160 C 93 148.496, 92.881 147.790, 90.545 145.455 C 88.108 143.017, 87.956 143, 68.680 143 C 50.557 143, 49.095 143.137, 46.635 145.073 M 140.455 145.455 C 138.119 147.790, 138 148.496, 138 160 C 138 171.504, 138.119 172.210, 140.455 174.545 C 142.898 176.989, 143.001 177, 162.705 176.968 C 183.417 176.935, 184.486 176.729, 186.837 172.316 C 188.326 169.520, 188.366 150.897, 186.890 147.657 C 186.279 146.317, 184.683 144.721, 183.343 144.110 C 181.830 143.421, 173.701 143, 161.907 143 C 143.070 143, 142.888 143.021, 140.455 145.455 M 46 194 C 44.206 195.794, 44 197.333, 44 208.927 C 44 221.702, 44.031 221.879, 46.635 223.927 C 49.095 225.863, 50.557 226, 68.680 226 C 87.956 226, 88.108 225.983, 90.545 223.545 C 92.890 221.201, 93 220.530, 93 208.584 C 93 191.071, 94.383 192, 68.311 192 C 49.333 192, 47.869 192.131, 46 194 M 140.455 194.455 C 138.146 196.763, 138 197.564, 138 207.907 C 138 213.957, 138.500 220.002, 139.110 221.343 C 139.721 222.683, 141.317 224.279, 142.657 224.890 C 144.153 225.571, 152.007 226, 163 226 C 173.993 226, 181.847 225.571, 183.343 224.890 C 184.683 224.279, 186.279 222.683, 186.890 221.343 C 187.500 220.002, 188 213.957, 188 207.907 C 188 197.564, 187.854 196.763, 185.545 194.455 C 183.102 192.011, 182.998 192, 163 192 C 143.002 192, 142.898 192.011, 140.455 194.455" stroke="none" fill="black" fill-rule="evenodd"/>
</svg>